<?xml version="1.0" encoding="UTF-8" standalone="no"?>
<svg
   xmlns:dc="http://purl.org/dc/elements/1.1/"
   xmlns:cc="http://creativecommons.org/ns#"
   xmlns:rdf="http://www.w3.org/1999/02/22-rdf-syntax-ns#"
   xmlns:svg="http://www.w3.org/2000/svg"
   xmlns="http://www.w3.org/2000/svg"
   xmlns:sodipodi="http://sodipodi.sourceforge.net/DTD/sodipodi-0.dtd"
   xmlns:inkscape="http://www.inkscape.org/namespaces/inkscape"
   width="280px"
   height="280px"
   viewBox="0 0 280 280"
   version="1.1"
   id="svg4561"
   sodipodi:docname="awesome_vulcan.svg"
   inkscape:version="0.92.3 (unknown)">
  <metadata
     id="metadata4565">
    <rdf:RDF>
      <cc:Work
         rdf:about="">
        <dc:format>image/svg+xml</dc:format>
        <dc:type
           rdf:resource="http://purl.org/dc/dcmitype/StillImage" />
        <dc:title>vulcan-logo-border-2</dc:title>
      </cc:Work>
    </rdf:RDF>
  </metadata>
  <sodipodi:namedview
     pagecolor="#ffffff"
     bordercolor="#666666"
     borderopacity="1"
     objecttolerance="10"
     gridtolerance="10"
     guidetolerance="10"
     inkscape:pageopacity="0"
     inkscape:pageshadow="2"
     inkscape:window-width="1855"
     inkscape:window-height="1056"
     id="namedview4563"
     showgrid="false"
     inkscape:zoom="0.83392855"
     inkscape:cx="-257.96623"
     inkscape:cy="507.59536"
     inkscape:window-x="65"
     inkscape:window-y="24"
     inkscape:window-maximized="1"
     inkscape:current-layer="Page-2-36"
     inkscape:snap-global="false" />
  <title
     id="title4545">vulcan-logo-border-2</title>
  <desc
     id="desc4547">Created with Sketch.</desc>
  <defs
     id="defs4549" />
  <g
     id="Page-2"
     stroke="none"
     stroke-width="1"
     fill="none"
     fill-rule="evenodd"
     inkscape:export-xdpi="246.79874"
     inkscape:export-ydpi="246.79874"
     inkscape:export-filename="/home/eric-burel/Development/awesome-vulcan/public/img/awesome-vulcan-logo_1024.png">
    <g
       id="vulcan-logo-border-2"
       transform="translate(14.000000, 40.000000)">
      <path
         d="M28,20 L78.1255176,180.75571 L173.874482,180.75571 L224,20 L161.499399,20 L126.052169,135.629899 L90.6049389,20 L28,20 Z M146.711875,7.10542736e-15 L251.185951,7.10542736e-15 L188.587964,200.75571 L63.4120358,200.75571 L0.814048637,1.0658141e-14 L105.392463,0 L126.052169,67.392565 L146.711875,7.10542736e-15 Z"
         id="Combined-Shape"
         fill="#313F4F"
         fill-rule="nonzero" />
      <g
         id="vulcan-logo-copy"
         transform="translate(36.000000, 25.000000)">
        <polygon
           id="Rectangle-3"
           fill="#F44A06"
           points="0 0 20.3717949 0 67.151893 150 46.7800982 150" />
        <polygon
           id="Rectangle-3-Copy"
           fill="#FDAE1B"
           points="27.1623932 0 47.534188 0 94.3142862 150 73.9424913 150" />
        <polygon
           id="polygon4554"
           fill="#FBDA15"
           transform="translate(145.889865, 75.000000) scale(-1, 1) translate(-145.889865, -75.000000) "
           points="112.313919 0 132.685714 0 179.465812 150 159.094017 150" />
        <polygon
           id="polygon4556"
           fill="#FDAE1B"
           transform="translate(118.727472, 75.000000) scale(-1, 1) translate(-118.727472, -75.000000) "
           points="85.1515258 0 105.523321 0 152.303419 150 131.931624 150" />
      </g>
    </g>
  </g>
  <g
     transform="matrix(1,0,0,-1,-0.29978173,46.245079)"
     style="fill:none;fill-rule:evenodd;stroke:none;stroke-width:1"
     id="Page-2-36"
     inkscape:export-xdpi="246.79874"
     inkscape:export-ydpi="246.79874"
     inkscape:export-filename="/home/eric-burel/Development/awesome-vulcan/public/img/awesome-vulcan-logo_1024.png">
    <path
       style="fill:#313f4f;fill-rule:nonzero"
       d="M -70.587891 -180.21094 L -133.18555 20.544922 L -28.607422 20.544922 L -7.9472656 -46.847656 L 12.710938 20.544922 L 117.18555 20.544922 L 54.587891 -180.21094 L -70.587891 -180.21094 z M -55.875 -160.21094 L 39.875 -160.21094 L 90 0.54492188 L 27.5 0.54492188 L -7.9472656 -115.08594 L -18.554688 -80.484375 L -3.6308594 -80.40625 L -2.109375 -75.509766 L 6.7636719 -46.941406 L -28.794922 -47.080078 L -43.394531 0.54492188 L -106 0.54492188 L -55.875 -160.21094 z M -22.839844 -66.507812 L -24.507812 -61.0625 L -12.267578 -61.015625 L -13.958984 -66.460938 L -22.839844 -66.507812 z "
       transform="matrix(1,0,0,-1,0.29978173,46.245079)"
       id="Combined-Shape-5" />
    <polygon
       transform="translate(-97.70022,51)"
       style="fill:#0bb5ff;fill-opacity:0.94117647"
       id="Rectangle-3-5"
       points="46.780098,150 0,0 20.371795,0 67.151893,150 " />
    <path
       sodipodi:nodetypes="ccccc"
       inkscape:connector-curvature="0"
       id="polygon1149"
       d="m -8.495972,119.67816 -34.885631,0.18219 -6.398484,-19.45499 47.326755,-0.18219 z"
       style="fill:#0251e4;fill-opacity:1" />
    <polygon
       transform="translate(-97.70022,51)"
       style="fill:#0251e4;fill-opacity:1"
       id="Rectangle-3-Copy-6"
       points="73.942491,150 27.162393,0 47.534188,0 94.314286,150 " />
    <polygon
       style="fill:#0425ea;fill-opacity:1"
       id="polygon4554-2"
       transform="matrix(-1,0,0,1,194.07951,51)"
       points="159.09402,150 112.31392,0 132.68571,0 179.46581,150 " />
    <polygon
       style="fill:#0251e4;fill-opacity:1"
       id="polygon4556-9"
       transform="matrix(-1,0,0,1,139.75472,51)"
       points="131.93162,150 85.151526,0 105.52332,0 152.30342,150 " />
  </g>
</svg>
